<?xml version="1.0"?>
<svg version="1.1" xmlns="http://www.w3.org/2000/svg" xmlns:xlink="http://www.w3.org/1999/xlink" width="512" height="512">
    <g id="Layer1" name="Layer 1" opacity="1">
        <g id="Shape1">
            <desc shapeID="1" type="0" basicInfo-basicType="0" basicInfo-roundedRectRadius="12" basicInfo-polygonSides="6" basicInfo-starPoints="5" bounding="rect(-256,-256,512,512)" text="" font-familyName="" font-pixelSize="20" font-bold="0" font-underline="0" font-alignment="1" strokeStyle="0" markerStart="0" markerEnd="0" shadowEnabled="0" shadowOffsetX="0" shadowOffsetY="2" shadowBlur="4" shadowOpacity="160" blurEnabled="0" blurRadius="4" transform="matrix(1,0,0,1,256,256)" pers-center="0,0" pers-size="0,0" pers-start="0,0" pers-end="0,0" locked="0" mesh="" flag=""/>
            <path id="shapePath1" d="M0,0 L512,0 L512,512 L0,512 L0,0 Z" style="stroke:#000000;stroke-opacity:1;stroke-width:1;stroke-linejoin:bevel;stroke-miterlimit:2;stroke-linecap:square;fill-rule:evenodd;fill:#000000;fill-opacity:0;"/>
        </g>
        <g id="Shape2">
            <desc shapeID="2" type="0" basicInfo-basicType="0" basicInfo-roundedRectRadius="12" basicInfo-polygonSides="6" basicInfo-starPoints="5" bounding="rect(-186,-192,372,384)" text="" font-familyName="" font-pixelSize="20" font-bold="0" font-underline="0" font-alignment="1" strokeStyle="0" markerStart="0" markerEnd="0" shadowEnabled="0" shadowOffsetX="0" shadowOffsetY="2" shadowBlur="4" shadowOpacity="160" blurEnabled="0" blurRadius="4" transform="matrix(1,0,0,1,258.5,264.5)" pers-center="0,0" pers-size="0,0" pers-start="0,0" pers-end="0,0" locked="0" mesh="" flag=""/>
            <path id="shapePath2" d="M88,72.5 L429,72.5 C437.56,72.5 444.5,77.276 444.5,83.167 L444.5,445.833 C444.5,451.724 437.56,456.5 429,456.5 L88,456.5 C79.44,456.5 72.5,451.724 72.5,445.833 L72.5,83.167 C72.5,77.276 79.44,72.5 88,72.5 Z" style="stroke:#c9c9c9;stroke-opacity:1;stroke-width:15;stroke-linejoin:round;stroke-miterlimit:2;stroke-linecap:round;fill-rule:nonzero;fill:#000000;fill-opacity:0.423529;"/>
        </g>
        <g id="Shape3">
            <desc shapeID="3" type="0" basicInfo-basicType="0" basicInfo-roundedRectRadius="12" basicInfo-polygonSides="6" basicInfo-starPoints="5" bounding="rect(-174,-18,348,36)" text="" font-familyName="" font-pixelSize="20" font-bold="0" font-underline="0" font-alignment="1" strokeStyle="0" markerStart="0" markerEnd="0" shadowEnabled="0" shadowOffsetX="0" shadowOffsetY="2" shadowBlur="4" shadowOpacity="160" blurEnabled="0" blurRadius="4" transform="matrix(0.894436,0,0,1,256,126.5)" pers-center="0,0" pers-size="0,0" pers-start="0,0" pers-end="0,0" locked="0" mesh="" flag=""/>
            <path id="shapePath3" d="M411.632,117.5 L411.632,135.5 C411.632,140.471 405.825,144.5 398.663,144.5 L113.337,144.5 C106.175,144.5 100.368,140.471 100.368,135.5 L100.368,117.5 C100.368,112.529 106.175,108.5 113.337,108.5 L398.663,108.5 C405.825,108.5 411.632,112.529 411.632,117.5 Z" style="stroke:#000000;stroke-opacity:1;stroke-width:1;stroke-linejoin:bevel;stroke-miterlimit:2;stroke-linecap:square;fill-rule:nonzero;fill:#ffffff;fill-opacity:1;"/>
        </g>
        <g id="Shape4">
            <desc shapeID="4" type="0" basicInfo-basicType="0" basicInfo-roundedRectRadius="12" basicInfo-polygonSides="6" basicInfo-starPoints="5" bounding="rect(-174,-16.4835,348,32.967)" text="" font-familyName="" font-pixelSize="20" font-bold="0" font-underline="0" font-alignment="1" strokeStyle="0" markerStart="0" markerEnd="0" shadowEnabled="0" shadowOffsetX="0" shadowOffsetY="2" shadowBlur="4" shadowOpacity="160" blurEnabled="0" blurRadius="4" transform="matrix(1,0,0,0.878667,258.5,79.5)" pers-center="0,0" pers-size="0,0" pers-start="0,0" pers-end="0,0" locked="0" mesh="" flag=""/>
            <path id="shapePath4" d="M432.5,72.2585 L432.5,86.7416 C432.5,90.7413 426.008,93.9836 418,93.9836 L99,93.9836 C90.992,93.9836 84.5,90.7413 84.5,86.7416 L84.5,72.2585 C84.5,68.2588 90.992,65.0165 99,65.0165 L418,65.0165 C426.008,65.0165 432.5,68.2588 432.5,72.2585 Z" style="stroke:#000000;stroke-opacity:1;stroke-width:1;stroke-linejoin:bevel;stroke-miterlimit:2;stroke-linecap:square;fill-rule:nonzero;fill:#0b0b0b;fill-opacity:1;"/>
        </g>
        <g id="Shape5">
            <desc shapeID="5" type="0" basicInfo-basicType="0" basicInfo-roundedRectRadius="12" basicInfo-polygonSides="6" basicInfo-starPoints="5" bounding="rect(-174,-18,348,36)" text="" font-familyName="" font-pixelSize="20" font-bold="0" font-underline="0" font-alignment="1" strokeStyle="0" markerStart="0" markerEnd="0" shadowEnabled="0" shadowOffsetX="0" shadowOffsetY="2" shadowBlur="4" shadowOpacity="160" blurEnabled="0" blurRadius="4" transform="matrix(0.894436,0,0,1,256,176)" pers-center="0,0" pers-size="0,0" pers-start="0,0" pers-end="0,0" locked="0" mesh="" flag=""/>
            <path id="shapePath5" d="M411.632,167 L411.632,185 C411.632,189.971 405.825,194 398.663,194 L113.337,194 C106.175,194 100.368,189.971 100.368,185 L100.368,167 C100.368,162.029 106.175,158 113.337,158 L398.663,158 C405.825,158 411.632,162.029 411.632,167 Z" style="stroke:#000000;stroke-opacity:1;stroke-width:1;stroke-linejoin:bevel;stroke-miterlimit:2;stroke-linecap:square;fill-rule:nonzero;fill:#ffffff;fill-opacity:1;"/>
        </g>
        <g id="Shape6">
            <desc shapeID="6" type="0" basicInfo-basicType="0" basicInfo-roundedRectRadius="12" basicInfo-polygonSides="6" basicInfo-starPoints="5" bounding="rect(-174,-18,348,36)" text="" font-familyName="" font-pixelSize="20" font-bold="0" font-underline="0" font-alignment="1" strokeStyle="0" markerStart="0" markerEnd="0" shadowEnabled="0" shadowOffsetX="0" shadowOffsetY="2" shadowBlur="4" shadowOpacity="160" blurEnabled="0" blurRadius="4" transform="matrix(0.894436,0,0,1,256,223)" pers-center="0,0" pers-size="0,0" pers-start="0,0" pers-end="0,0" locked="0" mesh="" flag=""/>
            <path id="shapePath6" d="M411.632,214 L411.632,232 C411.632,236.971 405.825,241 398.663,241 L113.337,241 C106.175,241 100.368,236.971 100.368,232 L100.368,214 C100.368,209.029 106.175,205 113.337,205 L398.663,205 C405.825,205 411.632,209.029 411.632,214 Z" style="stroke:#000000;stroke-opacity:1;stroke-width:1;stroke-linejoin:bevel;stroke-miterlimit:2;stroke-linecap:square;fill-rule:nonzero;fill:#ffffff;fill-opacity:1;"/>
        </g>
        <g id="Shape7">
            <desc shapeID="7" type="0" basicInfo-basicType="0" basicInfo-roundedRectRadius="12" basicInfo-polygonSides="6" basicInfo-starPoints="5" bounding="rect(-174,-18,348,36)" text="" font-familyName="" font-pixelSize="20" font-bold="0" font-underline="0" font-alignment="1" strokeStyle="0" markerStart="0" markerEnd="0" shadowEnabled="0" shadowOffsetX="0" shadowOffsetY="2" shadowBlur="4" shadowOpacity="160" blurEnabled="0" blurRadius="4" transform="matrix(0.894436,0,0,1,256,270)" pers-center="0,0" pers-size="0,0" pers-start="0,0" pers-end="0,0" locked="0" mesh="" flag=""/>
            <path id="shapePath7" d="M411.632,261 L411.632,279 C411.632,283.971 405.825,288 398.663,288 L113.337,288 C106.175,288 100.368,283.971 100.368,279 L100.368,261 C100.368,256.029 106.175,252 113.337,252 L398.663,252 C405.825,252 411.632,256.029 411.632,261 Z" style="stroke:#000000;stroke-opacity:1;stroke-width:1;stroke-linejoin:bevel;stroke-miterlimit:2;stroke-linecap:square;fill-rule:nonzero;fill:#ffffff;fill-opacity:1;"/>
        </g>
        <g id="Shape8">
            <desc shapeID="8" type="0" basicInfo-basicType="0" basicInfo-roundedRectRadius="12" basicInfo-polygonSides="6" basicInfo-starPoints="5" bounding="rect(-174,-18,348,36)" text="" font-familyName="" font-pixelSize="20" font-bold="0" font-underline="0" font-alignment="1" strokeStyle="0" markerStart="0" markerEnd="0" shadowEnabled="0" shadowOffsetX="0" shadowOffsetY="2" shadowBlur="4" shadowOpacity="160" blurEnabled="0" blurRadius="4" transform="matrix(0.894436,0,0,1,256,317)" pers-center="0,0" pers-size="0,0" pers-start="0,0" pers-end="0,0" locked="0" mesh="" flag=""/>
            <path id="shapePath8" d="M411.632,308 L411.632,326 C411.632,330.971 405.825,335 398.663,335 L113.337,335 C106.175,335 100.368,330.971 100.368,326 L100.368,308 C100.368,303.029 106.175,299 113.337,299 L398.663,299 C405.825,299 411.632,303.029 411.632,308 Z" style="stroke:#000000;stroke-opacity:1;stroke-width:1;stroke-linejoin:bevel;stroke-miterlimit:2;stroke-linecap:square;fill-rule:nonzero;fill:#ffffff;fill-opacity:1;"/>
        </g>
        <g id="Shape9">
            <desc shapeID="9" type="0" basicInfo-basicType="0" basicInfo-roundedRectRadius="12" basicInfo-polygonSides="6" basicInfo-starPoints="5" bounding="rect(-174,-18,348,36)" text="" font-familyName="" font-pixelSize="20" font-bold="0" font-underline="0" font-alignment="1" strokeStyle="0" markerStart="0" markerEnd="0" shadowEnabled="0" shadowOffsetX="0" shadowOffsetY="2" shadowBlur="4" shadowOpacity="160" blurEnabled="0" blurRadius="4" transform="matrix(0.894436,0,0,1,256,364)" pers-center="0,0" pers-size="0,0" pers-start="0,0" pers-end="0,0" locked="0" mesh="" flag=""/>
            <path id="shapePath9" d="M411.632,355 L411.632,373 C411.632,377.971 405.825,382 398.663,382 L113.337,382 C106.175,382 100.368,377.971 100.368,373 L100.368,355 C100.368,350.029 106.175,346 113.337,346 L398.663,346 C405.825,346 411.632,350.029 411.632,355 Z" style="stroke:#000000;stroke-opacity:1;stroke-width:1;stroke-linejoin:bevel;stroke-miterlimit:2;stroke-linecap:square;fill-rule:nonzero;fill:#ffffff;fill-opacity:1;"/>
        </g>
        <g id="Shape10">
            <desc shapeID="10" type="0" basicInfo-basicType="0" basicInfo-roundedRectRadius="12" basicInfo-polygonSides="6" basicInfo-starPoints="5" bounding="rect(-174,-18,348,36)" text="" font-familyName="" font-pixelSize="20" font-bold="0" font-underline="0" font-alignment="1" strokeStyle="0" markerStart="0" markerEnd="0" shadowEnabled="0" shadowOffsetX="0" shadowOffsetY="2" shadowBlur="4" shadowOpacity="160" blurEnabled="0" blurRadius="4" transform="matrix(0.894436,0,0,1,256,411)" pers-center="0,0" pers-size="0,0" pers-start="0,0" pers-end="0,0" locked="0" mesh="" flag=""/>
            <path id="shapePath10" d="M411.632,402 L411.632,420 C411.632,424.971 405.825,429 398.663,429 L113.337,429 C106.175,429 100.368,424.971 100.368,420 L100.368,402 C100.368,397.029 106.175,393 113.337,393 L398.663,393 C405.825,393 411.632,397.029 411.632,402 Z" style="stroke:#000000;stroke-opacity:1;stroke-width:1;stroke-linejoin:bevel;stroke-miterlimit:2;stroke-linecap:square;fill-rule:nonzero;fill:#ffffff;fill-opacity:1;"/>
        </g>
    </g>
</svg>
